<?xml version="1.0" encoding="utf-8" standalone="no"?>
<!DOCTYPE svg PUBLIC "-//W3C//DTD SVG 1.1//EN"
  "http://www.w3.org/Graphics/SVG/1.1/DTD/svg11.dtd">
<!-- Created with matplotlib (http://matplotlib.org/) -->
<svg height="648pt" version="1.1" viewBox="0 0 1152 648" width="1152pt" xmlns="http://www.w3.org/2000/svg" xmlns:xlink="http://www.w3.org/1999/xlink">
 <defs>
  <style type="text/css">
*{stroke-linecap:butt;stroke-linejoin:round;}
  </style>
 </defs>
 <g id="figure_1">
  <g id="patch_1">
   <path d="M 0 648 
L 1152 648 
L 1152 0 
L 0 0 
z
" style="fill:#ffffff;"/>
  </g>
  <g id="axes_1">
   <g id="patch_2">
    <path clip-path="url(#pd799c55dc2)" d="M 144 567 
L 508.840898 567 
L 508.840898 314.042244 
L 144 314.042244 
z
" style="fill:#67000d;"/>
   </g>
   <g id="patch_3">
    <path clip-path="url(#pd799c55dc2)" d="M 144 314.042244 
L 508.840898 314.042244 
L 508.840898 193.938848 
L 144 193.938848 
z
" style="fill:#fb7252;"/>
   </g>
   <g id="patch_4">
    <path clip-path="url(#pd799c55dc2)" d="M 144 193.938848 
L 508.840898 193.938848 
L 508.840898 77.76 
L 144 77.76 
z
" style="fill:#fb7757;"/>
   </g>
   <g id="patch_5">
    <path clip-path="url(#pd799c55dc2)" d="M 508.840898 567 
L 785.265804 567 
L 785.265804 441.87773 
L 508.840898 441.87773 
z
" style="fill:#fc9373;"/>
   </g>
   <g id="patch_6">
    <path clip-path="url(#pd799c55dc2)" d="M 785.265804 567 
L 1036.8 567 
L 1036.8 441.87773 
L 785.265804 441.87773 
z
" style="fill:#fc9d7f;"/>
   </g>
   <g id="patch_7">
    <path clip-path="url(#pd799c55dc2)" d="M 508.840898 441.87773 
L 777.560579 441.87773 
L 777.560579 326.105071 
L 508.840898 326.105071 
z
" style="fill:#fc9e80;"/>
   </g>
   <g id="patch_8">
    <path clip-path="url(#pd799c55dc2)" d="M 777.560579 441.87773 
L 1036.8 441.87773 
L 1036.8 326.105071 
L 777.560579 326.105071 
z
" style="fill:#fca285;"/>
   </g>
   <g id="patch_9">
    <path clip-path="url(#pd799c55dc2)" d="M 508.840898 326.105071 
L 709.534453 326.105071 
L 709.534453 181.389795 
L 508.840898 181.389795 
z
" style="fill:#fca689;"/>
   </g>
   <g id="patch_10">
    <path clip-path="url(#pd799c55dc2)" d="M 508.840898 181.389795 
L 709.534453 181.389795 
L 709.534453 77.76 
L 508.840898 77.76 
z
" style="fill:#fcc3ab;"/>
   </g>
   <g id="patch_11">
    <path clip-path="url(#pd799c55dc2)" d="M 709.534453 326.105071 
L 887.667251 326.105071 
L 887.667251 249.259057 
L 709.534453 249.259057 
z
" style="fill:#fedaca;"/>
   </g>
   <g id="patch_12">
    <path clip-path="url(#pd799c55dc2)" d="M 887.667251 326.105071 
L 1036.8 326.105071 
L 1036.8 249.259057 
L 887.667251 249.259057 
z
" style="fill:#fee1d3;"/>
   </g>
   <g id="patch_13">
    <path clip-path="url(#pd799c55dc2)" d="M 709.534453 249.259057 
L 858.548456 249.259057 
L 858.548456 175.903672 
L 709.534453 175.903672 
z
" style="fill:#fee1d4;"/>
   </g>
   <g id="patch_14">
    <path clip-path="url(#pd799c55dc2)" d="M 709.534453 175.903672 
L 858.548456 175.903672 
L 858.548456 126.252321 
L 709.534453 126.252321 
z
" style="fill:#fee8dd;"/>
   </g>
   <g id="patch_15">
    <path clip-path="url(#pd799c55dc2)" d="M 709.534453 126.252321 
L 858.548456 126.252321 
L 858.548456 77.76 
L 709.534453 77.76 
z
" style="fill:#fee8dd;"/>
   </g>
   <g id="patch_16">
    <path clip-path="url(#pd799c55dc2)" d="M 858.548456 249.259057 
L 951.476831 249.259057 
L 951.476831 172.339214 
L 858.548456 172.339214 
z
" style="fill:#fee8de;"/>
   </g>
   <g id="patch_17">
    <path clip-path="url(#pd799c55dc2)" d="M 951.476831 249.259057 
L 1036.8 249.259057 
L 1036.8 172.339214 
L 951.476831 172.339214 
z
" style="fill:#fee9df;"/>
   </g>
   <g id="patch_18">
    <path clip-path="url(#pd799c55dc2)" d="M 858.548456 172.339214 
L 959.337746 172.339214 
L 959.337746 119.715361 
L 858.548456 119.715361 
z
" style="fill:#ffece3;"/>
   </g>
   <g id="patch_19">
    <path clip-path="url(#pd799c55dc2)" d="M 858.548456 119.715361 
L 959.337746 119.715361 
L 959.337746 77.76 
L 858.548456 77.76 
z
" style="fill:#ffeee6;"/>
   </g>
   <g id="patch_20">
    <path clip-path="url(#pd799c55dc2)" d="M 959.337746 172.339214 
L 1036.8 172.339214 
L 1036.8 118.396696 
L 959.337746 118.396696 
z
" style="fill:#ffeee6;"/>
   </g>
   <g id="patch_21">
    <path clip-path="url(#pd799c55dc2)" d="M 959.337746 118.396696 
L 1002.661768 118.396696 
L 1002.661768 77.76 
L 959.337746 77.76 
z
" style="fill:#fff2ec;"/>
   </g>
   <g id="patch_22">
    <path clip-path="url(#pd799c55dc2)" d="M 1002.661768 118.396696 
L 1036.8 118.396696 
L 1036.8 80.371193 
L 1002.661768 80.371193 
z
" style="fill:#fff3ed;"/>
   </g>
   <g id="patch_23">
    <path clip-path="url(#pd799c55dc2)" d="M 1002.661768 80.371193 
L 1017.597244 80.371193 
L 1017.597244 77.76 
L 1002.661768 77.76 
z
" style="fill:#fff5f0;"/>
   </g>
   <g id="patch_24">
    <path clip-path="url(#pd799c55dc2)" d="M 1017.597244 80.371193 
L 1021.864523 80.371193 
L 1021.864523 77.76 
L 1017.597244 77.76 
z
" style="fill:#fff5f0;"/>
   </g>
   <g id="patch_25">
    <path clip-path="url(#pd799c55dc2)" d="M 1021.864523 80.371193 
L 1026.131802 80.371193 
L 1026.131802 77.76 
L 1021.864523 77.76 
z
" style="fill:#fff5f0;"/>
   </g>
   <g id="patch_26">
    <path clip-path="url(#pd799c55dc2)" d="M 1026.131802 80.371193 
L 1030.399081 80.371193 
L 1030.399081 79.065597 
L 1026.131802 79.065597 
z
" style="fill:#fff5f0;"/>
   </g>
   <g id="patch_27">
    <path clip-path="url(#pd799c55dc2)" d="M 1026.131802 79.065597 
L 1030.399081 79.065597 
L 1030.399081 77.76 
L 1026.131802 77.76 
z
" style="fill:#fff5f0;"/>
   </g>
   <g id="patch_28">
    <path clip-path="url(#pd799c55dc2)" d="M 1030.399081 80.371193 
L 1034.66636 80.371193 
L 1034.66636 79.065597 
L 1030.399081 79.065597 
z
" style="fill:#fff5f0;"/>
   </g>
   <g id="patch_29">
    <path clip-path="url(#pd799c55dc2)" d="M 1030.399081 79.065597 
L 1034.66636 79.065597 
L 1034.66636 77.76 
L 1030.399081 77.76 
z
" style="fill:#fff5f0;"/>
   </g>
   <g id="patch_30">
    <path clip-path="url(#pd799c55dc2)" d="M 1034.66636 80.371193 
L 1036.8 80.371193 
L 1036.8 77.76 
L 1034.66636 77.76 
z
" style="fill:#fff5f0;"/>
   </g>
   <g id="text_1">
    <!-- light -->
    <defs>
     <path d="M 9.421875 75.984375 
L 18.40625 75.984375 
L 18.40625 0 
L 9.421875 0 
z
" id="DejaVuSans-6c"/>
     <path d="M 9.421875 54.6875 
L 18.40625 54.6875 
L 18.40625 0 
L 9.421875 0 
z
M 9.421875 75.984375 
L 18.40625 75.984375 
L 18.40625 64.59375 
L 9.421875 64.59375 
z
" id="DejaVuSans-69"/>
     <path d="M 45.40625 27.984375 
Q 45.40625 37.75 41.375 43.109375 
Q 37.359375 48.484375 30.078125 48.484375 
Q 22.859375 48.484375 18.828125 43.109375 
Q 14.796875 37.75 14.796875 27.984375 
Q 14.796875 18.265625 18.828125 12.890625 
Q 22.859375 7.515625 30.078125 7.515625 
Q 37.359375 7.515625 41.375 12.890625 
Q 45.40625 18.265625 45.40625 27.984375 
z
M 54.390625 6.78125 
Q 54.390625 -7.171875 48.1875 -13.984375 
Q 42 -20.796875 29.203125 -20.796875 
Q 24.46875 -20.796875 20.265625 -20.09375 
Q 16.0625 -19.390625 12.109375 -17.921875 
L 12.109375 -9.1875 
Q 16.0625 -11.328125 19.921875 -12.34375 
Q 23.78125 -13.375 27.78125 -13.375 
Q 36.625 -13.375 41.015625 -8.765625 
Q 45.40625 -4.15625 45.40625 5.171875 
L 45.40625 9.625 
Q 42.625 4.78125 38.28125 2.390625 
Q 33.9375 0 27.875 0 
Q 17.828125 0 11.671875 7.65625 
Q 5.515625 15.328125 5.515625 27.984375 
Q 5.515625 40.671875 11.671875 48.328125 
Q 17.828125 56 27.875 56 
Q 33.9375 56 38.28125 53.609375 
Q 42.625 51.21875 45.40625 46.390625 
L 45.40625 54.6875 
L 54.390625 54.6875 
z
" id="DejaVuSans-67"/>
     <path d="M 54.890625 33.015625 
L 54.890625 0 
L 45.90625 0 
L 45.90625 32.71875 
Q 45.90625 40.484375 42.875 44.328125 
Q 39.84375 48.1875 33.796875 48.1875 
Q 26.515625 48.1875 22.3125 43.546875 
Q 18.109375 38.921875 18.109375 30.90625 
L 18.109375 0 
L 9.078125 0 
L 9.078125 75.984375 
L 18.109375 75.984375 
L 18.109375 46.1875 
Q 21.34375 51.125 25.703125 53.5625 
Q 30.078125 56 35.796875 56 
Q 45.21875 56 50.046875 50.171875 
Q 54.890625 44.34375 54.890625 33.015625 
z
" id="DejaVuSans-68"/>
     <path d="M 18.3125 70.21875 
L 18.3125 54.6875 
L 36.8125 54.6875 
L 36.8125 47.703125 
L 18.3125 47.703125 
L 18.3125 18.015625 
Q 18.3125 11.328125 20.140625 9.421875 
Q 21.96875 7.515625 27.59375 7.515625 
L 36.8125 7.515625 
L 36.8125 0 
L 27.59375 0 
Q 17.1875 0 13.234375 3.875 
Q 9.28125 7.765625 9.28125 18.015625 
L 9.28125 47.703125 
L 2.6875 47.703125 
L 2.6875 54.6875 
L 9.28125 54.6875 
L 9.28125 70.21875 
z
" id="DejaVuSans-74"/>
    </defs>
    <g transform="translate(315.339199 443.280497)scale(0.1 -0.1)">
     <use xlink:href="#DejaVuSans-6c"/>
     <use x="27.783203" xlink:href="#DejaVuSans-69"/>
     <use x="55.566406" xlink:href="#DejaVuSans-67"/>
     <use x="119.042969" xlink:href="#DejaVuSans-68"/>
     <use x="182.421875" xlink:href="#DejaVuSans-74"/>
    </g>
   </g>
   <g id="text_2">
    <!-- triangle -->
    <defs>
     <path d="M 41.109375 46.296875 
Q 39.59375 47.171875 37.8125 47.578125 
Q 36.03125 48 33.890625 48 
Q 26.265625 48 22.1875 43.046875 
Q 18.109375 38.09375 18.109375 28.8125 
L 18.109375 0 
L 9.078125 0 
L 9.078125 54.6875 
L 18.109375 54.6875 
L 18.109375 46.1875 
Q 20.953125 51.171875 25.484375 53.578125 
Q 30.03125 56 36.53125 56 
Q 37.453125 56 38.578125 55.875 
Q 39.703125 55.765625 41.0625 55.515625 
z
" id="DejaVuSans-72"/>
     <path d="M 34.28125 27.484375 
Q 23.390625 27.484375 19.1875 25 
Q 14.984375 22.515625 14.984375 16.5 
Q 14.984375 11.71875 18.140625 8.90625 
Q 21.296875 6.109375 26.703125 6.109375 
Q 34.1875 6.109375 38.703125 11.40625 
Q 43.21875 16.703125 43.21875 25.484375 
L 43.21875 27.484375 
z
M 52.203125 31.203125 
L 52.203125 0 
L 43.21875 0 
L 43.21875 8.296875 
Q 40.140625 3.328125 35.546875 0.953125 
Q 30.953125 -1.421875 24.3125 -1.421875 
Q 15.921875 -1.421875 10.953125 3.296875 
Q 6 8.015625 6 15.921875 
Q 6 25.140625 12.171875 29.828125 
Q 18.359375 34.515625 30.609375 34.515625 
L 43.21875 34.515625 
L 43.21875 35.40625 
Q 43.21875 41.609375 39.140625 45 
Q 35.0625 48.390625 27.6875 48.390625 
Q 23 48.390625 18.546875 47.265625 
Q 14.109375 46.140625 10.015625 43.890625 
L 10.015625 52.203125 
Q 14.9375 54.109375 19.578125 55.046875 
Q 24.21875 56 28.609375 56 
Q 40.484375 56 46.34375 49.84375 
Q 52.203125 43.703125 52.203125 31.203125 
z
" id="DejaVuSans-61"/>
     <path d="M 54.890625 33.015625 
L 54.890625 0 
L 45.90625 0 
L 45.90625 32.71875 
Q 45.90625 40.484375 42.875 44.328125 
Q 39.84375 48.1875 33.796875 48.1875 
Q 26.515625 48.1875 22.3125 43.546875 
Q 18.109375 38.921875 18.109375 30.90625 
L 18.109375 0 
L 9.078125 0 
L 9.078125 54.6875 
L 18.109375 54.6875 
L 18.109375 46.1875 
Q 21.34375 51.125 25.703125 53.5625 
Q 30.078125 56 35.796875 56 
Q 45.21875 56 50.046875 50.171875 
Q 54.890625 44.34375 54.890625 33.015625 
z
" id="DejaVuSans-6e"/>
     <path d="M 56.203125 29.59375 
L 56.203125 25.203125 
L 14.890625 25.203125 
Q 15.484375 15.921875 20.484375 11.0625 
Q 25.484375 6.203125 34.421875 6.203125 
Q 39.59375 6.203125 44.453125 7.46875 
Q 49.3125 8.734375 54.109375 11.28125 
L 54.109375 2.78125 
Q 49.265625 0.734375 44.1875 -0.34375 
Q 39.109375 -1.421875 33.890625 -1.421875 
Q 20.796875 -1.421875 13.15625 6.1875 
Q 5.515625 13.8125 5.515625 26.8125 
Q 5.515625 40.234375 12.765625 48.109375 
Q 20.015625 56 32.328125 56 
Q 43.359375 56 49.78125 48.890625 
Q 56.203125 41.796875 56.203125 29.59375 
z
M 47.21875 32.234375 
Q 47.125 39.59375 43.09375 43.984375 
Q 39.0625 48.390625 32.421875 48.390625 
Q 24.90625 48.390625 20.390625 44.140625 
Q 15.875 39.890625 15.1875 32.171875 
z
" id="DejaVuSans-65"/>
    </defs>
    <g transform="translate(307.143105 256.749921)scale(0.1 -0.1)">
     <use xlink:href="#DejaVuSans-74"/>
     <use x="39.208984" xlink:href="#DejaVuSans-72"/>
     <use x="80.322266" xlink:href="#DejaVuSans-69"/>
     <use x="108.105469" xlink:href="#DejaVuSans-61"/>
     <use x="169.384766" xlink:href="#DejaVuSans-6e"/>
     <use x="232.763672" xlink:href="#DejaVuSans-67"/>
     <use x="296.240234" xlink:href="#DejaVuSans-6c"/>
     <use x="324.023438" xlink:href="#DejaVuSans-65"/>
    </g>
   </g>
   <g id="text_3">
    <!-- circle -->
    <defs>
     <path d="M 48.78125 52.59375 
L 48.78125 44.1875 
Q 44.96875 46.296875 41.140625 47.34375 
Q 37.3125 48.390625 33.40625 48.390625 
Q 24.65625 48.390625 19.8125 42.84375 
Q 14.984375 37.3125 14.984375 27.296875 
Q 14.984375 17.28125 19.8125 11.734375 
Q 24.65625 6.203125 33.40625 6.203125 
Q 37.3125 6.203125 41.140625 7.25 
Q 44.96875 8.296875 48.78125 10.40625 
L 48.78125 2.09375 
Q 45.015625 0.34375 40.984375 -0.53125 
Q 36.96875 -1.421875 32.421875 -1.421875 
Q 20.0625 -1.421875 12.78125 6.34375 
Q 5.515625 14.109375 5.515625 27.296875 
Q 5.515625 40.671875 12.859375 48.328125 
Q 20.21875 56 33.015625 56 
Q 37.15625 56 41.109375 55.140625 
Q 45.0625 54.296875 48.78125 52.59375 
z
" id="DejaVuSans-63"/>
    </defs>
    <g transform="translate(313.013418 138.608799)scale(0.1 -0.1)">
     <use xlink:href="#DejaVuSans-63"/>
     <use x="54.980469" xlink:href="#DejaVuSans-69"/>
     <use x="82.763672" xlink:href="#DejaVuSans-72"/>
     <use x="123.845703" xlink:href="#DejaVuSans-63"/>
     <use x="178.826172" xlink:href="#DejaVuSans-6c"/>
     <use x="206.609375" xlink:href="#DejaVuSans-65"/>
    </g>
   </g>
   <g id="text_4">
    <!-- fireball -->
    <defs>
     <path d="M 37.109375 75.984375 
L 37.109375 68.5 
L 28.515625 68.5 
Q 23.6875 68.5 21.796875 66.546875 
Q 19.921875 64.59375 19.921875 59.515625 
L 19.921875 54.6875 
L 34.71875 54.6875 
L 34.71875 47.703125 
L 19.921875 47.703125 
L 19.921875 0 
L 10.890625 0 
L 10.890625 47.703125 
L 2.296875 47.703125 
L 2.296875 54.6875 
L 10.890625 54.6875 
L 10.890625 58.5 
Q 10.890625 67.625 15.140625 71.796875 
Q 19.390625 75.984375 28.609375 75.984375 
z
" id="DejaVuSans-66"/>
     <path d="M 48.6875 27.296875 
Q 48.6875 37.203125 44.609375 42.84375 
Q 40.53125 48.484375 33.40625 48.484375 
Q 26.265625 48.484375 22.1875 42.84375 
Q 18.109375 37.203125 18.109375 27.296875 
Q 18.109375 17.390625 22.1875 11.75 
Q 26.265625 6.109375 33.40625 6.109375 
Q 40.53125 6.109375 44.609375 11.75 
Q 48.6875 17.390625 48.6875 27.296875 
z
M 18.109375 46.390625 
Q 20.953125 51.265625 25.265625 53.625 
Q 29.59375 56 35.59375 56 
Q 45.5625 56 51.78125 48.09375 
Q 58.015625 40.1875 58.015625 27.296875 
Q 58.015625 14.40625 51.78125 6.484375 
Q 45.5625 -1.421875 35.59375 -1.421875 
Q 29.59375 -1.421875 25.265625 0.953125 
Q 20.953125 3.328125 18.109375 8.203125 
L 18.109375 0 
L 9.078125 0 
L 9.078125 75.984375 
L 18.109375 75.984375 
z
" id="DejaVuSans-62"/>
    </defs>
    <g transform="translate(629.757257 507.19824)scale(0.1 -0.1)">
     <use xlink:href="#DejaVuSans-66"/>
     <use x="35.205078" xlink:href="#DejaVuSans-69"/>
     <use x="62.988281" xlink:href="#DejaVuSans-72"/>
     <use x="104.070312" xlink:href="#DejaVuSans-65"/>
     <use x="165.59375" xlink:href="#DejaVuSans-62"/>
     <use x="229.070312" xlink:href="#DejaVuSans-61"/>
     <use x="290.349609" xlink:href="#DejaVuSans-6c"/>
     <use x="318.132812" xlink:href="#DejaVuSans-6c"/>
    </g>
   </g>
   <g id="text_5">
    <!-- other -->
    <defs>
     <path d="M 30.609375 48.390625 
Q 23.390625 48.390625 19.1875 42.75 
Q 14.984375 37.109375 14.984375 27.296875 
Q 14.984375 17.484375 19.15625 11.84375 
Q 23.34375 6.203125 30.609375 6.203125 
Q 37.796875 6.203125 41.984375 11.859375 
Q 46.1875 17.53125 46.1875 27.296875 
Q 46.1875 37.015625 41.984375 42.703125 
Q 37.796875 48.390625 30.609375 48.390625 
z
M 30.609375 56 
Q 42.328125 56 49.015625 48.375 
Q 55.71875 40.765625 55.71875 27.296875 
Q 55.71875 13.875 49.015625 6.21875 
Q 42.328125 -1.421875 30.609375 -1.421875 
Q 18.84375 -1.421875 12.171875 6.21875 
Q 5.515625 13.875 5.515625 27.296875 
Q 5.515625 40.765625 12.171875 48.375 
Q 18.84375 56 30.609375 56 
z
" id="DejaVuSans-6f"/>
    </defs>
    <g transform="translate(897.712589 507.19824)scale(0.1 -0.1)">
     <use xlink:href="#DejaVuSans-6f"/>
     <use x="61.181641" xlink:href="#DejaVuSans-74"/>
     <use x="100.390625" xlink:href="#DejaVuSans-68"/>
     <use x="163.769531" xlink:href="#DejaVuSans-65"/>
     <use x="225.292969" xlink:href="#DejaVuSans-72"/>
    </g>
   </g>
   <g id="text_6">
    <!-- unknown -->
    <defs>
     <path d="M 8.5 21.578125 
L 8.5 54.6875 
L 17.484375 54.6875 
L 17.484375 21.921875 
Q 17.484375 14.15625 20.5 10.265625 
Q 23.53125 6.390625 29.59375 6.390625 
Q 36.859375 6.390625 41.078125 11.03125 
Q 45.3125 15.671875 45.3125 23.6875 
L 45.3125 54.6875 
L 54.296875 54.6875 
L 54.296875 0 
L 45.3125 0 
L 45.3125 8.40625 
Q 42.046875 3.421875 37.71875 1 
Q 33.40625 -1.421875 27.6875 -1.421875 
Q 18.265625 -1.421875 13.375 4.4375 
Q 8.5 10.296875 8.5 21.578125 
z
M 31.109375 56 
z
" id="DejaVuSans-75"/>
     <path d="M 9.078125 75.984375 
L 18.109375 75.984375 
L 18.109375 31.109375 
L 44.921875 54.6875 
L 56.390625 54.6875 
L 27.390625 29.109375 
L 57.625 0 
L 45.90625 0 
L 18.109375 26.703125 
L 18.109375 0 
L 9.078125 0 
z
" id="DejaVuSans-6b"/>
     <path d="M 4.203125 54.6875 
L 13.1875 54.6875 
L 24.421875 12.015625 
L 35.59375 54.6875 
L 46.1875 54.6875 
L 57.421875 12.015625 
L 68.609375 54.6875 
L 77.59375 54.6875 
L 63.28125 0 
L 52.6875 0 
L 40.921875 44.828125 
L 29.109375 0 
L 18.5 0 
z
" id="DejaVuSans-77"/>
    </defs>
    <g transform="translate(620.481989 386.750775)scale(0.1 -0.1)">
     <use xlink:href="#DejaVuSans-75"/>
     <use x="63.378906" xlink:href="#DejaVuSans-6e"/>
     <use x="126.757812" xlink:href="#DejaVuSans-6b"/>
     <use x="184.667969" xlink:href="#DejaVuSans-6e"/>
     <use x="248.046875" xlink:href="#DejaVuSans-6f"/>
     <use x="309.228516" xlink:href="#DejaVuSans-77"/>
     <use x="391.015625" xlink:href="#DejaVuSans-6e"/>
    </g>
   </g>
   <g id="text_7">
    <!-- sphere -->
    <defs>
     <path d="M 44.28125 53.078125 
L 44.28125 44.578125 
Q 40.484375 46.53125 36.375 47.5 
Q 32.28125 48.484375 27.875 48.484375 
Q 21.1875 48.484375 17.84375 46.4375 
Q 14.5 44.390625 14.5 40.28125 
Q 14.5 37.15625 16.890625 35.375 
Q 19.28125 33.59375 26.515625 31.984375 
L 29.59375 31.296875 
Q 39.15625 29.25 43.1875 25.515625 
Q 47.21875 21.78125 47.21875 15.09375 
Q 47.21875 7.46875 41.1875 3.015625 
Q 35.15625 -1.421875 24.609375 -1.421875 
Q 20.21875 -1.421875 15.453125 -0.5625 
Q 10.6875 0.296875 5.421875 2 
L 5.421875 11.28125 
Q 10.40625 8.6875 15.234375 7.390625 
Q 20.0625 6.109375 24.8125 6.109375 
Q 31.15625 6.109375 34.5625 8.28125 
Q 37.984375 10.453125 37.984375 14.40625 
Q 37.984375 18.0625 35.515625 20.015625 
Q 33.0625 21.96875 24.703125 23.78125 
L 21.578125 24.515625 
Q 13.234375 26.265625 9.515625 29.90625 
Q 5.8125 33.546875 5.8125 39.890625 
Q 5.8125 47.609375 11.28125 51.796875 
Q 16.75 56 26.8125 56 
Q 31.78125 56 36.171875 55.265625 
Q 40.578125 54.546875 44.28125 53.078125 
z
" id="DejaVuSans-73"/>
     <path d="M 18.109375 8.203125 
L 18.109375 -20.796875 
L 9.078125 -20.796875 
L 9.078125 54.6875 
L 18.109375 54.6875 
L 18.109375 46.390625 
Q 20.953125 51.265625 25.265625 53.625 
Q 29.59375 56 35.59375 56 
Q 45.5625 56 51.78125 48.09375 
Q 58.015625 40.1875 58.015625 27.296875 
Q 58.015625 14.40625 51.78125 6.484375 
Q 45.5625 -1.421875 35.59375 -1.421875 
Q 29.59375 -1.421875 25.265625 0.953125 
Q 20.953125 3.328125 18.109375 8.203125 
z
M 48.6875 27.296875 
Q 48.6875 37.203125 44.609375 42.84375 
Q 40.53125 48.484375 33.40625 48.484375 
Q 26.265625 48.484375 22.1875 42.84375 
Q 18.109375 37.203125 18.109375 27.296875 
Q 18.109375 17.390625 22.1875 11.75 
Q 26.265625 6.109375 33.40625 6.109375 
Q 40.53125 6.109375 44.609375 11.75 
Q 48.6875 17.390625 48.6875 27.296875 
z
" id="DejaVuSans-70"/>
    </defs>
    <g transform="translate(890.025602 386.750775)scale(0.1 -0.1)">
     <use xlink:href="#DejaVuSans-73"/>
     <use x="52.099609" xlink:href="#DejaVuSans-70"/>
     <use x="115.576172" xlink:href="#DejaVuSans-68"/>
     <use x="178.955078" xlink:href="#DejaVuSans-65"/>
     <use x="240.478516" xlink:href="#DejaVuSans-72"/>
     <use x="281.560547" xlink:href="#DejaVuSans-65"/>
    </g>
   </g>
   <g id="text_8">
    <!-- disk -->
    <defs>
     <path d="M 45.40625 46.390625 
L 45.40625 75.984375 
L 54.390625 75.984375 
L 54.390625 0 
L 45.40625 0 
L 45.40625 8.203125 
Q 42.578125 3.328125 38.25 0.953125 
Q 33.9375 -1.421875 27.875 -1.421875 
Q 17.96875 -1.421875 11.734375 6.484375 
Q 5.515625 14.40625 5.515625 27.296875 
Q 5.515625 40.1875 11.734375 48.09375 
Q 17.96875 56 27.875 56 
Q 33.9375 56 38.25 53.625 
Q 42.578125 51.265625 45.40625 46.390625 
z
M 14.796875 27.296875 
Q 14.796875 17.390625 18.875 11.75 
Q 22.953125 6.109375 30.078125 6.109375 
Q 37.203125 6.109375 41.296875 11.75 
Q 45.40625 17.390625 45.40625 27.296875 
Q 45.40625 37.203125 41.296875 42.84375 
Q 37.203125 48.484375 30.078125 48.484375 
Q 22.953125 48.484375 18.875 42.84375 
Q 14.796875 37.203125 14.796875 27.296875 
z
" id="DejaVuSans-64"/>
    </defs>
    <g transform="translate(599.124394 256.506808)scale(0.1 -0.1)">
     <use xlink:href="#DejaVuSans-64"/>
     <use x="63.476562" xlink:href="#DejaVuSans-69"/>
     <use x="91.259766" xlink:href="#DejaVuSans-73"/>
     <use x="143.359375" xlink:href="#DejaVuSans-6b"/>
    </g>
   </g>
   <g id="text_9">
    <!-- oval -->
    <defs>
     <path d="M 2.984375 54.6875 
L 12.5 54.6875 
L 29.59375 8.796875 
L 46.6875 54.6875 
L 56.203125 54.6875 
L 35.6875 0 
L 23.484375 0 
z
" id="DejaVuSans-76"/>
    </defs>
    <g transform="translate(598.715801 132.334273)scale(0.1 -0.1)">
     <use xlink:href="#DejaVuSans-6f"/>
     <use x="61.181641" xlink:href="#DejaVuSans-76"/>
     <use x="120.361328" xlink:href="#DejaVuSans-61"/>
     <use x="181.640625" xlink:href="#DejaVuSans-6c"/>
    </g>
   </g>
   <g id="text_10">
    <!-- formation -->
    <defs>
     <path d="M 52 44.1875 
Q 55.375 50.25 60.0625 53.125 
Q 64.75 56 71.09375 56 
Q 79.640625 56 84.28125 50.015625 
Q 88.921875 44.046875 88.921875 33.015625 
L 88.921875 0 
L 79.890625 0 
L 79.890625 32.71875 
Q 79.890625 40.578125 77.09375 44.375 
Q 74.3125 48.1875 68.609375 48.1875 
Q 61.625 48.1875 57.5625 43.546875 
Q 53.515625 38.921875 53.515625 30.90625 
L 53.515625 0 
L 44.484375 0 
L 44.484375 32.71875 
Q 44.484375 40.625 41.703125 44.40625 
Q 38.921875 48.1875 33.109375 48.1875 
Q 26.21875 48.1875 22.15625 43.53125 
Q 18.109375 38.875 18.109375 30.90625 
L 18.109375 0 
L 9.078125 0 
L 9.078125 54.6875 
L 18.109375 54.6875 
L 18.109375 46.1875 
Q 21.1875 51.21875 25.484375 53.609375 
Q 29.78125 56 35.6875 56 
Q 41.65625 56 45.828125 52.96875 
Q 50 49.953125 52 44.1875 
z
" id="DejaVuSans-6d"/>
    </defs>
    <g transform="translate(774.214914 290.441439)scale(0.1 -0.1)">
     <use xlink:href="#DejaVuSans-66"/>
     <use x="35.205078" xlink:href="#DejaVuSans-6f"/>
     <use x="96.386719" xlink:href="#DejaVuSans-72"/>
     <use x="137.484375" xlink:href="#DejaVuSans-6d"/>
     <use x="234.896484" xlink:href="#DejaVuSans-61"/>
     <use x="296.175781" xlink:href="#DejaVuSans-74"/>
     <use x="335.384766" xlink:href="#DejaVuSans-69"/>
     <use x="363.167969" xlink:href="#DejaVuSans-6f"/>
     <use x="424.349609" xlink:href="#DejaVuSans-6e"/>
    </g>
   </g>
   <g id="text_11">
    <!-- cigar -->
    <g transform="translate(949.801594 290.441439)scale(0.1 -0.1)">
     <use xlink:href="#DejaVuSans-63"/>
     <use x="54.980469" xlink:href="#DejaVuSans-69"/>
     <use x="82.763672" xlink:href="#DejaVuSans-67"/>
     <use x="146.240234" xlink:href="#DejaVuSans-61"/>
     <use x="207.519531" xlink:href="#DejaVuSans-72"/>
    </g>
   </g>
   <g id="text_12">
    <!-- changing -->
    <g transform="translate(760.984423 215.340739)scale(0.1 -0.1)">
     <use xlink:href="#DejaVuSans-63"/>
     <use x="54.980469" xlink:href="#DejaVuSans-68"/>
     <use x="118.359375" xlink:href="#DejaVuSans-61"/>
     <use x="179.638672" xlink:href="#DejaVuSans-6e"/>
     <use x="243.017578" xlink:href="#DejaVuSans-67"/>
     <use x="306.494141" xlink:href="#DejaVuSans-69"/>
     <use x="334.277344" xlink:href="#DejaVuSans-6e"/>
     <use x="397.65625" xlink:href="#DejaVuSans-67"/>
    </g>
   </g>
   <g id="text_13">
    <!-- flash -->
    <g transform="translate(772.054736 153.837372)scale(0.1 -0.1)">
     <use xlink:href="#DejaVuSans-66"/>
     <use x="35.205078" xlink:href="#DejaVuSans-6c"/>
     <use x="62.988281" xlink:href="#DejaVuSans-61"/>
     <use x="124.267578" xlink:href="#DejaVuSans-73"/>
     <use x="176.367188" xlink:href="#DejaVuSans-68"/>
    </g>
   </g>
   <g id="text_14">
    <!-- rectangle -->
    <g transform="translate(760.328954 104.765536)scale(0.1 -0.1)">
     <use xlink:href="#DejaVuSans-72"/>
     <use x="41.082031" xlink:href="#DejaVuSans-65"/>
     <use x="102.605469" xlink:href="#DejaVuSans-63"/>
     <use x="157.585938" xlink:href="#DejaVuSans-74"/>
     <use x="196.794922" xlink:href="#DejaVuSans-61"/>
     <use x="258.074219" xlink:href="#DejaVuSans-6e"/>
     <use x="321.453125" xlink:href="#DejaVuSans-67"/>
     <use x="384.929688" xlink:href="#DejaVuSans-6c"/>
     <use x="412.712891" xlink:href="#DejaVuSans-65"/>
    </g>
   </g>
   <g id="text_15">
    <!-- cylinder -->
    <defs>
     <path d="M 32.171875 -5.078125 
Q 28.375 -14.84375 24.75 -17.8125 
Q 21.140625 -20.796875 15.09375 -20.796875 
L 7.90625 -20.796875 
L 7.90625 -13.28125 
L 13.1875 -13.28125 
Q 16.890625 -13.28125 18.9375 -11.515625 
Q 21 -9.765625 23.484375 -3.21875 
L 25.09375 0.875 
L 2.984375 54.6875 
L 12.5 54.6875 
L 29.59375 11.921875 
L 46.6875 54.6875 
L 56.203125 54.6875 
z
" id="DejaVuSans-79"/>
    </defs>
    <g transform="translate(885.050925 213.55851)scale(0.1 -0.1)">
     <use xlink:href="#DejaVuSans-63"/>
     <use x="54.980469" xlink:href="#DejaVuSans-79"/>
     <use x="114.160156" xlink:href="#DejaVuSans-6c"/>
     <use x="141.943359" xlink:href="#DejaVuSans-69"/>
     <use x="169.726562" xlink:href="#DejaVuSans-6e"/>
     <use x="233.105469" xlink:href="#DejaVuSans-64"/>
     <use x="296.582031" xlink:href="#DejaVuSans-65"/>
     <use x="358.105469" xlink:href="#DejaVuSans-72"/>
    </g>
   </g>
   <g id="text_16">
    <!-- diamond -->
    <g transform="translate(972.238415 213.55851)scale(0.1 -0.1)">
     <use xlink:href="#DejaVuSans-64"/>
     <use x="63.476562" xlink:href="#DejaVuSans-69"/>
     <use x="91.259766" xlink:href="#DejaVuSans-61"/>
     <use x="152.539062" xlink:href="#DejaVuSans-6d"/>
     <use x="249.951172" xlink:href="#DejaVuSans-6f"/>
     <use x="311.132812" xlink:href="#DejaVuSans-6e"/>
     <use x="374.511719" xlink:href="#DejaVuSans-64"/>
    </g>
   </g>
   <g id="text_17">
    <!-- chevron -->
    <g transform="translate(888.707163 148.786663)scale(0.1 -0.1)">
     <use xlink:href="#DejaVuSans-63"/>
     <use x="54.980469" xlink:href="#DejaVuSans-68"/>
     <use x="118.359375" xlink:href="#DejaVuSans-65"/>
     <use x="179.882812" xlink:href="#DejaVuSans-76"/>
     <use x="239.0625" xlink:href="#DejaVuSans-72"/>
     <use x="280.144531" xlink:href="#DejaVuSans-6f"/>
     <use x="341.326172" xlink:href="#DejaVuSans-6e"/>
    </g>
   </g>
   <g id="text_18">
    <!-- egg -->
    <g transform="translate(899.518101 101.497056)scale(0.1 -0.1)">
     <use xlink:href="#DejaVuSans-65"/>
     <use x="61.523438" xlink:href="#DejaVuSans-67"/>
     <use x="125" xlink:href="#DejaVuSans-67"/>
    </g>
   </g>
   <g id="text_19">
    <!-- teardrop -->
    <g transform="translate(976.451686 148.12733)scale(0.1 -0.1)">
     <use xlink:href="#DejaVuSans-74"/>
     <use x="39.208984" xlink:href="#DejaVuSans-65"/>
     <use x="100.732422" xlink:href="#DejaVuSans-61"/>
     <use x="162.011719" xlink:href="#DejaVuSans-72"/>
     <use x="203.109375" xlink:href="#DejaVuSans-64"/>
     <use x="266.585938" xlink:href="#DejaVuSans-72"/>
     <use x="307.667969" xlink:href="#DejaVuSans-6f"/>
     <use x="368.849609" xlink:href="#DejaVuSans-70"/>
    </g>
   </g>
   <g id="text_20">
    <!-- cone -->
    <g transform="translate(968.945851 100.837723)scale(0.1 -0.1)">
     <use xlink:href="#DejaVuSans-63"/>
     <use x="54.980469" xlink:href="#DejaVuSans-6f"/>
     <use x="116.162109" xlink:href="#DejaVuSans-6e"/>
     <use x="179.541016" xlink:href="#DejaVuSans-65"/>
    </g>
   </g>
   <g id="text_21">
    <!-- cross -->
    <g transform="translate(1006.659009 102.14332)scale(0.1 -0.1)">
     <use xlink:href="#DejaVuSans-63"/>
     <use x="54.980469" xlink:href="#DejaVuSans-72"/>
     <use x="96.0625" xlink:href="#DejaVuSans-6f"/>
     <use x="157.244141" xlink:href="#DejaVuSans-73"/>
     <use x="209.34375" xlink:href="#DejaVuSans-73"/>
    </g>
   </g>
  </g>
 </g>
 <defs>
  <clipPath id="pd799c55dc2">
   <rect height="489.24" width="892.8" x="144" y="77.76"/>
  </clipPath>
 </defs>
</svg>
